<?xml version="1.0" standalone="no"?>
<!DOCTYPE svg PUBLIC "-//W3C//DTD SVG 20010904//EN"
 "http://www.w3.org/TR/2001/REC-SVG-20010904/DTD/svg10.dtd">
<svg version="1.0" xmlns="http://www.w3.org/2000/svg"
 width="500.000000pt" height="500.000000pt" viewBox="0 0 500.000000 500.000000"
 preserveAspectRatio="xMidYMid meet">
<metadata>
Created by potrace 1.14, written by Peter Selinger 2001-2017
</metadata>
<g transform="translate(0.000000,500.000000) scale(0.100000,-0.100000)"
fill="#000000" stroke="none">
<path d="M2268 4989 c-187 -21 -319 -47 -483 -96 -174 -51 -369 -129 -409
-162 -10 -9 -20 -14 -23 -12 -7 5 -180 -95 -252 -146 -82 -59 -256 -197 -301
-239 -19 -18 -44 -41 -55 -51 -52 -47 -134 -143 -233 -273 -40 -52 -76 -100
-82 -107 -18 -22 -78 -120 -111 -179 -86 -157 -126 -248 -172 -385 -111 -330
-146 -547 -142 -874 3 -228 20 -363 71 -560 18 -71 36 -139 39 -150 23 -90
113 -311 165 -407 10 -19 15 -28 51 -93 45 -84 218 -326 268 -376 9 -9 27 -31
41 -49 42 -56 227 -231 268 -254 9 -6 28 -21 42 -34 14 -13 43 -36 65 -50 22
-15 49 -35 60 -45 20 -19 191 -127 200 -127 2 0 27 -14 53 -30 27 -16 56 -30
64 -30 9 0 21 -7 28 -15 7 -8 16 -12 21 -9 5 3 9 0 9 -5 0 -6 3 -10 8 -9 4 1
25 -7 47 -17 22 -10 43 -19 48 -20 4 -2 10 -4 15 -5 4 -1 10 -2 15 -1 4 0 7
-4 7 -10 0 -5 4 -8 10 -4 5 3 17 1 27 -4 35 -20 270 -91 353 -106 14 -3 36 -7
50 -10 136 -29 254 -39 460 -39 271 -1 476 26 673 85 37 12 73 22 80 23 7 1
17 5 24 9 6 4 23 8 37 9 14 1 26 6 26 10 0 4 6 8 13 8 33 0 239 91 382 169 63
34 229 143 255 167 8 8 53 44 100 81 108 84 196 167 285 268 123 139 374 505
347 505 -4 0 -2 4 4 8 9 6 32 51 72 142 9 19 16 37 17 40 1 3 7 18 13 33 7 16
12 34 12 41 0 6 5 17 10 22 12 12 39 99 80 259 30 116 36 143 46 215 3 25 7
47 9 50 11 18 20 194 19 365 0 174 -6 258 -31 415 -7 49 -72 311 -83 335 -20
46 -38 114 -32 121 4 4 2 5 -4 1 -6 -3 -16 14 -23 40 -8 25 -27 72 -42 104
-16 33 -29 64 -29 69 0 6 -5 10 -12 10 -6 0 -8 3 -5 7 4 3 2 12 -4 20 -6 7 -8
13 -3 13 5 0 4 4 -2 8 -9 6 -77 118 -134 220 -8 15 -20 30 -27 34 -6 5 -24 28
-40 53 -15 25 -32 45 -36 45 -5 0 -5 5 -2 10 3 6 2 10 -3 10 -5 0 -29 26 -54
58 -52 66 -119 142 -164 186 -55 54 -124 116 -131 116 -3 0 -13 8 -22 18 -16
18 -189 152 -236 182 -42 27 -230 135 -260 149 -17 8 -46 21 -65 30 -19 9 -38
21 -42 26 -4 6 -8 7 -8 2 0 -4 -14 0 -31 9 -17 8 -40 17 -52 20 -11 2 -24 9
-29 16 -4 7 -8 10 -8 7 0 -4 -28 2 -62 13 -87 28 -257 76 -291 82 -95 18 -151
27 -217 37 -90 13 -447 19 -542 8z"/>
</g>
</svg>
